<?xml version="1.0" encoding="UTF-8" standalone="no"?>
<!-- Created with Inkscape (http://www.inkscape.org/) -->

<svg
   width="74.346939mm"
   height="22.509302mm"
   viewBox="0 0 74.346939 22.509302"
   version="1.1"
   id="svg5"
   sodipodi:docname="logo.svg"
   inkscape:version="1.1.2 (b8e25be833, 2022-02-05)"
   xmlns:inkscape="http://www.inkscape.org/namespaces/inkscape"
   xmlns:sodipodi="http://sodipodi.sourceforge.net/DTD/sodipodi-0.dtd"
   xmlns="http://www.w3.org/2000/svg"
   xmlns:svg="http://www.w3.org/2000/svg">
  <sodipodi:namedview
     id="namedview7"
     pagecolor="#ffffff"
     bordercolor="#666666"
     borderopacity="1.0"
     inkscape:pageshadow="2"
     inkscape:pageopacity="0.0"
     inkscape:pagecheckerboard="0"
     inkscape:document-units="mm"
     showgrid="false"
     inkscape:zoom="0.74029882"
     inkscape:cx="167.49993"
     inkscape:cy="13.508059"
     inkscape:window-width="1920"
     inkscape:window-height="1017"
     inkscape:window-x="-8"
     inkscape:window-y="-8"
     inkscape:window-maximized="1"
     inkscape:current-layer="layer1" />
  <defs
     id="defs2" />
  <g
     inkscape:label="Layer 1"
     inkscape:groupmode="layer"
     id="layer1"
     transform="translate(-60.740938,-87.842167)">
    <path
       style="fill:#666666;stroke-width:0.264583"
       d="m 114.70439,109.74221 c -0.78749,-0.41643 -1.34497,-0.97392 -1.76141,-1.7614 -0.5953,-1.12573 -0.60926,-1.32729 -0.60926,-8.791945 0,-8.305582 0.0611,-8.718562 1.48876,-10.053367 0.41811,-0.390924 1.09537,-0.837408 1.50502,-0.992187 1.18563,-0.44796 15.85181,-0.376145 16.92461,0.08287 1.02962,0.440546 2.1714,1.615906 2.55436,2.629498 0.17506,0.463329 0.28141,3.62248 0.28141,8.358906 0,7.437805 -0.0141,7.640745 -0.60926,8.766215 -0.41644,0.78749 -0.97392,1.34497 -1.76141,1.76141 -1.12783,0.59641 -1.31789,0.60926 -9.00641,0.60926 -7.68852,0 -7.87859,-0.0129 -9.00641,-0.60926 z m 6.30893,-5.01313 0.0806,-1.25677 h 4.6331 c 4.79575,0 5.65666,-0.16107 5.65666,-1.05833 0,-0.89726 -0.86091,-1.05834 -5.65666,-1.05834 h -4.6331 l -0.0806,-1.25439 c -0.0606,-0.942483 -0.19518,-1.276135 -0.54126,-1.34185 -0.55763,-0.105885 -4.16954,3.04922 -4.16971,3.64236 -1.8e-4,0.6264 3.47583,3.71502 4.10116,3.64411 0.43317,-0.0491 0.54379,-0.288 0.60981,-1.31679 z m 8.6506,-7.871352 1.8379,-1.852083 -1.8379,-1.852083 c -2.42233,-2.441041 -3.30729,-2.472246 -3.30729,-0.116621 v 0.898433 l -4.8001,0.07212 c -4.23602,0.06364 -4.83438,0.126526 -5.09187,0.535135 -0.21265,0.337449 -0.21265,0.588592 0,0.926042 0.25749,0.408609 0.85585,0.471495 5.09187,0.535135 l 4.8001,0.07211 v 0.898434 c 0,2.355625 0.88496,2.32442 3.30729,-0.116622 z m -67.268637,7.136122 c -1.159317,-0.46609 -1.653244,-1.75357 -1.654327,-4.312204 -9.53e-4,-2.229116 0.03423,-2.370671 0.772408,-3.108854 1.106019,-1.106017 2.654619,-1.090249 3.783399,0.03852 0.7358,0.735802 0.7732,0.850642 0.39891,1.224928 -0.54677,0.546776 -1.67154,0.261248 -1.86357,-0.473077 -0.0805,-0.307936 -0.27285,-0.480351 -0.42849,-0.384155 -0.17062,0.105445 -0.2824,1.255189 -0.2824,2.904641 0,2.162661 0.0867,2.802051 0.41704,3.076221 0.34563,0.28685 0.45821,0.28107 0.65741,-0.0337 0.1322,-0.20892 0.24219,-0.57548 0.24442,-0.81457 0.005,-0.52212 0.68532,-0.82727 1.36424,-0.61179 0.53645,0.17026 0.64129,0.93444 0.2329,1.69753 -0.46919,0.87668 -2.39497,1.29789 -3.64194,0.79655 z m 6.65788,-0.22671 c -1.06204,-0.64763 -1.69861,-2.03088 -1.69861,-3.69103 0,-2.493007 1.2117,-4.281329 2.89377,-4.270832 3.19458,0.01994 4.22517,5.946982 1.36658,7.859352 -1.09116,0.72997 -1.50558,0.74655 -2.56174,0.10251 z m 2.16885,-2.35141 c 0.25004,-1.33282 -0.0588,-4.037723 -0.51284,-4.491775 -0.58681,-0.586808 -0.90349,-0.222127 -1.24795,1.437098 -0.34208,1.647797 -0.002,4.243777 0.60677,4.628597 0.43107,0.27258 0.93708,-0.41756 1.15402,-1.57392 z m 9.65738,2.61057 c -0.2716,-0.17202 -0.40007,-1.18545 -0.49899,-3.93614 -0.12751,-3.545453 -0.10971,-3.717055 0.41459,-3.997655 0.93949,-0.502798 1.70167,0.04025 2.69914,1.923133 0.50932,0.961423 0.98884,1.749047 1.06561,1.750275 0.0768,0.0012 0.47828,-0.775284 0.89227,-1.725582 0.80344,-1.844234 1.34653,-2.322713 2.48698,-2.191102 l 0.71452,0.08246 0.0736,3.800374 c 0.0782,4.038777 -0.0454,4.533997 -1.13193,4.533997 -1.06406,0 -1.28281,-0.60115 -1.10997,-3.05037 0.0933,-1.32236 0.057,-2.241293 -0.0885,-2.241293 -0.13566,0 -0.31917,0.288894 -0.40779,0.641986 -0.21084,0.840067 -1.0078,1.544947 -1.61521,1.428607 -0.26549,-0.0508 -0.72083,-0.53722 -1.01187,-1.080814 -0.29104,-0.543592 -0.60529,-0.988671 -0.69833,-0.989064 -0.093,-3.97e-4 -0.10617,1.008846 -0.0292,2.242758 0.0996,1.59613 0.0436,2.35956 -0.19397,2.64583 -0.37176,0.44795 -1.00608,0.51402 -1.56096,0.1626 z m 10.66336,-0.25916 c -1.06204,-0.64763 -1.69862,-2.03088 -1.69862,-3.69103 0,-2.493007 1.21171,-4.281329 2.89377,-4.270832 3.19458,0.01994 4.22517,5.946982 1.36658,7.859352 -1.09116,0.72997 -1.50558,0.74655 -2.56173,0.10251 z m 2.16884,-2.35141 c 0.25004,-1.33282 -0.0588,-4.037723 -0.51284,-4.491775 -0.58681,-0.586808 -0.90349,-0.222127 -1.24794,1.437098 -0.34208,1.647797 -0.002,4.243777 0.60677,4.628597 0.43106,0.27258 0.93708,-0.41756 1.15401,-1.57392 z m 4.76521,2.25502 c -0.50178,-0.79578 -2.09152,-7.033773 -1.91187,-7.501947 0.20592,-0.536606 1.67531,-0.46692 1.9739,0.09361 0.13566,0.254661 0.33276,1.296458 0.43799,2.315104 0.25668,2.484683 0.55725,2.981663 0.79367,1.312319 0.419037,-2.958638 0.496907,-3.158736 1.264187,-3.248268 0.46805,-0.05462 0.77461,0.0618 0.87899,0.33381 0.25183,0.656261 -1.17816,6.579072 -1.6804,6.959952 -0.659907,0.50045 -1.338537,0.39823 -1.756467,-0.26458 z m 5.191807,0.43303 c -0.22559,-0.0999 -0.33687,-0.87535 -0.35004,-2.43946 -0.0106,-1.26118 -0.11494,-2.947894 -0.23182,-3.748259 -0.30011,-2.055156 -0.16838,-2.149661 2.87077,-2.05962 2.04771,0.06067 2.53974,0.152132 2.53974,0.472121 0,0.284589 -0.47068,0.466541 -1.66361,0.643114 -1.2554,0.185819 -1.62871,0.337204 -1.52136,0.616952 0.0782,0.203892 0.14226,0.658631 0.14226,1.010531 0,0.500314 0.1395,0.639819 0.63982,0.639819 1.66399,0 2.09054,0.975602 0.48466,1.108512 -0.98737,0.0817 -0.99219,0.0879 -0.99219,1.27274 v 1.19062 l 1.03805,-0.0833 c 0.57092,-0.0458 1.31506,-0.0138 1.65364,0.0712 0.72227,0.18128 0.8198,0.8436 0.15258,1.03611 -0.7648,0.22067 -4.40693,0.42635 -4.7625,0.26895 z m -29.320887,-4.10063 c -0.3241,-0.524412 0.50293,-0.755986 2.71465,-0.76012 2.11843,-0.004 2.95968,0.312636 2.16618,0.81523 -0.54097,0.34265 -4.66377,0.29609 -4.88083,-0.0551 z"
       id="path836" />
  </g>
</svg>
